<svg width="11" height="18" fill="none" xmlns="http://www.w3.org/2000/svg"><path d="M4.703 14.477c.11.191.3.273.547.273a.64.64 0 0 0 .547-.273l1.832-2.625a157.37 157.37 0 0 0 1.805-2.653c.41-.656.683-1.203.847-1.64.137-.438.219-.957.219-1.559a5.26 5.26 0 0 0-.71-2.625 5.821 5.821 0 0 0-1.915-1.914A5.255 5.255 0 0 0 5.25.75c-.957 0-1.832.246-2.625.71A5.35 5.35 0 0 0 .711 3.376 4.99 4.99 0 0 0 0 6c0 .602.055 1.121.219 1.559.136.437.41.984.847 1.64.274.465.875 1.34 1.805 2.653.738 1.066 1.34 1.941 1.832 2.625zm.547-6.29c-.602 0-1.121-.19-1.559-.628-.437-.438-.628-.957-.628-1.559s.19-1.094.628-1.531a2.13 2.13 0 0 1 1.559-.657c.602 0 1.094.22 1.531.657.438.437.657.93.657 1.531a2.13 2.13 0 0 1-.657 1.559c-.437.437-.93.628-1.531.628z" fill="#11A9B7"/></svg>