<svg width="14" height="16" fill="none" xmlns="http://www.w3.org/2000/svg"><path d="M0 2.625c0 .125.031.219.094.281C.156 2.97.25 3 .375 3h13.25a.355.355 0 0 0 .25-.094.396.396 0 0 0 .125-.281V1.75c0-.188-.094-.375-.219-.531-.156-.125-.344-.219-.531-.219h-3.5L9.469.406a.613.613 0 0 0-.281-.281C9.062.062 8.905 0 8.78 0H5.22c-.157 0-.282.063-.407.125a.613.613 0 0 0-.28.281L4.25 1H.75a.754.754 0 0 0-.531.219A.732.732 0 0 0 0 1.75v.875zm13 1.75c0-.094-.063-.188-.125-.25-.063-.063-.156-.125-.25-.125H1.375a.396.396 0 0 0-.281.125.355.355 0 0 0-.094.25V14.5c0 .438.125.781.438 1.063.28.312.625.437 1.062.437h9c.406 0 .75-.125 1.063-.438.28-.28.437-.624.437-1.062V4.375zM4.5 6.5v7a.518.518 0 0 1-.156.375A.47.47 0 0 1 4 14c-.156 0-.281-.031-.375-.125-.094-.094-.125-.219-.125-.375v-7a.47.47 0 0 1 .125-.344A.518.518 0 0 1 4 6c.125 0 .25.063.344.156A.502.502 0 0 1 4.5 6.5zm3 0v7a.518.518 0 0 1-.156.375A.47.47 0 0 1 7 14c-.156 0-.281-.031-.375-.125-.094-.094-.125-.219-.125-.375v-7a.47.47 0 0 1 .125-.344A.518.518 0 0 1 7 6c.125 0 .25.063.344.156A.502.502 0 0 1 7.5 6.5zm3 0v7a.518.518 0 0 1-.156.375A.47.47 0 0 1 10 14c-.156 0-.281-.031-.375-.125-.094-.094-.125-.219-.125-.375v-7a.47.47 0 0 1 .125-.344A.518.518 0 0 1 10 6c.125 0 .25.063.344.156a.502.502 0 0 1 .156.344z" fill="#CACACA"/></svg>