<svg width="18" height="16" fill="none" xmlns="http://www.w3.org/2000/svg"><path d="M16.5 9.406l1.469-6.5a.678.678 0 0 0-.125-.625A.712.712 0 0 0 17.25 2H4.969L4.687.594a.694.694 0 0 0-.28-.406A.6.6 0 0 0 3.968 0H.75a.723.723 0 0 0-.531.219A.723.723 0 0 0 0 .75v.5c0 .208.073.385.219.531A.723.723 0 0 0 .75 2h2.188l2.187 10.719c-.27.166-.49.385-.656.656-.146.27-.219.563-.219.875 0 .48.167.885.5 1.219.354.354.77.531 1.25.531s.885-.177 1.219-.531c.354-.334.531-.75.531-1.25 0-.48-.177-.886-.531-1.219h6.562a1.61 1.61 0 0 0-.531 1.219c0 .5.167.916.5 1.25.354.354.77.531 1.25.531s.885-.177 1.219-.531a1.61 1.61 0 0 0 .531-1.219 1.56 1.56 0 0 0-.281-.906 1.571 1.571 0 0 0-.719-.656l.188-.782a.756.756 0 0 0-.157-.625.682.682 0 0 0-.562-.281H6.813l-.188-1h9.156a.663.663 0 0 0 .438-.156.704.704 0 0 0 .281-.438z" fill="#fff"/></svg>