<svg width="114" height="20" fill="none" xmlns="http://www.w3.org/2000/svg"><path stroke="url(#paint0_linear)" stroke-width="2" d="M0 12h76"/><path d="M79 13.837v1.41c0 .606.476 1.097 1.063 1.097h2.748c.09 1.827 1.552 3.28 3.343 3.28 1.79 0 3.253-1.453 3.343-3.28h14.25c.091 1.827 1.553 3.28 3.343 3.28 1.791 0 3.253-1.453 3.343-3.28h2.504c.587 0 1.063-.491 1.063-1.098v-1.409c0-.549-.391-1.002-.9-1.084-.228-1.365-.709-3.102-1.715-3.725-1.75-1.083-4.889-1.976-4.889-1.976S100.566.958 95.961.958H83.987c-4.747 0-4.272 5.249-4.272 5.249v2.977h1.683c.128 0 .23.106.23.238v1.14a.234.234 0 0 1-.23.238h-1.683v2A1.095 1.095 0 0 0 79 13.838zm26.868 2.328c0-.696.548-1.263 1.222-1.263.674 0 1.222.567 1.222 1.263s-.548 1.262-1.222 1.262c-.674 0-1.222-.566-1.222-1.262zM91.633 2.989h3.33c2.087 0 4.56 1.682 6.267 3.093a.837.837 0 0 1 .254.913.797.797 0 0 1-.75.549h-.001l-9.1-.008V2.99zm-6.701 13.176c0-.696.548-1.263 1.222-1.263.674 0 1.222.567 1.222 1.263s-.548 1.262-1.222 1.262c-.674 0-1.222-.566-1.222-1.262zm-1.25-12.248c.546-.616 1.33-.928 2.328-.928h3.497v4.545l-5.906-.004a.808.808 0 0 1-.794-.804c-.011-.536.052-1.884.874-2.81z" fill="url(#paint1_linear)"/><defs><linearGradient id="paint0_linear" x1="57.24" y1="13" x2="7.215" y2="13" gradientUnits="userSpaceOnUse"><stop stop-color="#11A9B7" stop-opacity=".3"/><stop offset="1" stop-color="#11A9B7" stop-opacity=".1"/></linearGradient><linearGradient id="paint1_linear" x1="109.435" y1="11.47" x2="69.489" y2="11.47" gradientUnits="userSpaceOnUse"><stop offset=".105" stop-color="#11A9B7"/><stop offset=".901" stop-color="#11A9B7" stop-opacity=".35"/></linearGradient></defs></svg>