<svg width="38" height="55" fill="none" xmlns="http://www.w3.org/2000/svg"><path fill-rule="evenodd" clip-rule="evenodd" d="M38 21c0 4.53-1.674 8.67-4.437 11.834L18 55l2.233-16.002C20.155 39 20.078 39 20 39c-9.941 0-18-8.059-18-18S10.059 3 20 3s18 8.059 18 18zM20 32c6.075 0 11-4.925 11-11s-4.925-11-11-11S9 14.925 9 21s4.925 11 11 11z" fill="#142C52"/><path fill-rule="evenodd" clip-rule="evenodd" d="M36 18c0 4.53-1.674 8.67-4.437 11.834L16 52l2.233-16.002C18.155 36 18.078 36 18 36 8.059 36 0 27.941 0 18S8.059 0 18 0s18 8.059 18 18zM18 29c6.075 0 11-4.925 11-11S24.075 7 18 7 7 11.925 7 18s4.925 11 11 11z" fill="#EF2D56"/></svg>