<svg width="14" height="15" fill="none" xmlns="http://www.w3.org/2000/svg"><path d="M13.809 12.442l-2.735-2.734a.633.633 0 0 0-.465-.192h-.437a5.51 5.51 0 0 0 1.203-3.5 5.442 5.442 0 0 0-.766-2.843 5.68 5.68 0 0 0-2.078-2.078A5.452 5.452 0 0 0 5.687.329a5.585 5.585 0 0 0-2.87.766A5.748 5.748 0 0 0 .765 3.173 5.452 5.452 0 0 0 0 6.016c0 1.04.255 1.997.766 2.872a5.816 5.816 0 0 0 2.05 2.05c.875.51 1.832.766 2.872.766a5.51 5.51 0 0 0 3.5-1.203v.437c0 .183.063.338.19.465l2.735 2.734a.633.633 0 0 0 .465.192.633.633 0 0 0 .465-.192l.766-.765a.633.633 0 0 0 .191-.465.633.633 0 0 0-.191-.465zM5.688 9.516a3.553 3.553 0 0 1-1.778-.464 3.467 3.467 0 0 1-1.258-1.258 3.545 3.545 0 0 1-.465-1.778 3.4 3.4 0 0 1 .465-1.75A3.42 3.42 0 0 1 3.91 2.981a3.545 3.545 0 0 1 1.777-.465c.639 0 1.222.155 1.75.465.547.31.976.739 1.286 1.285.31.53.464 1.112.464 1.75 0 .638-.154 1.23-.464 1.778-.31.528-.739.948-1.286 1.258a3.397 3.397 0 0 1-1.75.464z" fill="#fff"/></svg>