<svg width="24" height="22" fill="none" xmlns="http://www.w3.org/2000/svg"><path d="M.844 4.336c-.264 0-.475-.053-.633-.211C.053 3.967 0 3.755 0 3.492v-2.11c0-.21.053-.421.21-.58A.873.873 0 0 1 .845.54H22.78c.211 0 .422.106.58.264a.843.843 0 0 1 .264.58v2.11a.873.873 0 0 1-.264.632c-.158.158-.369.21-.58.21H.844zm0 8.437c-.264 0-.475-.052-.633-.21-.158-.159-.211-.37-.211-.633V9.82c0-.21.053-.422.21-.58a.873.873 0 0 1 .634-.263H22.78c.211 0 .422.105.58.263.159.158.264.37.264.58v2.11a.873.873 0 0 1-.264.633c-.158.158-.369.21-.58.21H.844zm0 8.438C.58 21.21.369 21.158.21 21c-.157-.158-.21-.37-.21-.633v-2.11c0-.21.053-.421.21-.58a.873.873 0 0 1 .634-.263H22.78c.211 0 .422.105.58.264a.843.843 0 0 1 .264.58v2.11a.873.873 0 0 1-.264.632c-.158.158-.369.21-.58.21H.844z" fill="#fff"/></svg>