<?xml version="1.0" encoding="UTF-8"?><!DOCTYPE svg PUBLIC "-//W3C//DTD SVG 1.1//EN" "http://www.w3.org/Graphics/SVG/1.1/DTD/svg11.dtd"><svg xmlns="http://www.w3.org/2000/svg"><defs><linearGradient id="icon-cara" x1="57.24" y1="13" x2="7.215" y2="13" gradientUnits="userSpaceOnUse"><stop stop-color="#11A9B7" stop-opacity=".3"/><stop offset="1" stop-color="#11A9B7" stop-opacity=".1"/></linearGradient><linearGradient id="icon-carb" x1="109.435" y1="11.47" x2="69.489" y2="11.47" gradientUnits="userSpaceOnUse"><stop offset=".105" stop-color="#11A9B7"/><stop offset=".901" stop-color="#11A9B7" stop-opacity=".35"/></linearGradient></defs><symbol id="basket" viewBox="0 0 18 16"><path d="M16.5 9.406l1.469-6.5a.678.678 0 0 0-.125-.625A.712.712 0 0 0 17.25 2H4.969L4.687.594a.694.694 0 0 0-.28-.406A.6.6 0 0 0 3.968 0H.75a.723.723 0 0 0-.531.219A.723.723 0 0 0 0 .75v.5c0 .208.073.385.219.531A.723.723 0 0 0 .75 2h2.188l2.187 10.719c-.27.166-.49.385-.656.656-.146.27-.219.563-.219.875 0 .48.167.885.5 1.219.354.354.77.531 1.25.531s.885-.177 1.219-.531c.354-.334.531-.75.531-1.25 0-.48-.177-.886-.531-1.219h6.562a1.61 1.61 0 0 0-.531 1.219c0 .5.167.916.5 1.25.354.354.77.531 1.25.531s.885-.177 1.219-.531a1.61 1.61 0 0 0 .531-1.219c0-.333-.094-.635-.281-.906a1.571 1.571 0 0 0-.719-.656l.188-.782a.756.756 0 0 0-.157-.625.682.682 0 0 0-.562-.281H6.813l-.188-1h9.156a.663.663 0 0 0 .438-.156.704.704 0 0 0 .281-.438z" fill="#fff"/></symbol><symbol id="car" viewBox="0 0 114 20"><path stroke="url(#icon-cara)" stroke-width="2" d="M0 12h76"/><path d="M79 13.837v1.41c0 .606.476 1.097 1.063 1.097h2.748c.09 1.827 1.552 3.28 3.343 3.28 1.79 0 3.253-1.453 3.343-3.28h14.25c.091 1.827 1.553 3.28 3.343 3.28 1.791 0 3.253-1.453 3.343-3.28h2.504c.587 0 1.063-.491 1.063-1.098v-1.409c0-.549-.391-1.002-.9-1.084-.228-1.365-.709-3.102-1.715-3.725-1.75-1.083-4.889-1.976-4.889-1.976S100.566.958 95.961.958H83.987c-4.747 0-4.272 5.249-4.272 5.249v2.977h1.683c.128 0 .23.106.23.238v1.14a.234.234 0 0 1-.23.238h-1.683v2A1.095 1.095 0 0 0 79 13.838zm26.868 2.328c0-.696.548-1.263 1.222-1.263.674 0 1.222.567 1.222 1.263s-.548 1.262-1.222 1.262c-.674 0-1.222-.566-1.222-1.262zM91.633 2.989h3.33c2.087 0 4.56 1.682 6.267 3.093a.837.837 0 0 1 .254.913.797.797 0 0 1-.75.549h-.001l-9.1-.008V2.99zm-6.701 13.176c0-.696.548-1.263 1.222-1.263.674 0 1.222.567 1.222 1.263s-.548 1.262-1.222 1.262c-.674 0-1.222-.566-1.222-1.262zm-1.25-12.248c.546-.616 1.33-.928 2.328-.928h3.497v4.545l-5.906-.004a.808.808 0 0 1-.794-.804c-.011-.536.052-1.884.874-2.81z" fill="url(#icon-carb)"/></symbol><symbol id="cart-position" viewBox="0 0 38 55"><path fill-rule="evenodd" clip-rule="evenodd" d="M38 21c0 4.53-1.674 8.67-4.437 11.834L18 55l2.233-16.002C20.155 39 20.078 39 20 39c-9.941 0-18-8.059-18-18S10.059 3 20 3s18 8.059 18 18zM20 32c6.075 0 11-4.925 11-11s-4.925-11-11-11S9 14.925 9 21s4.925 11 11 11z" fill="#142C52"/><path fill-rule="evenodd" clip-rule="evenodd" d="M36 18c0 4.53-1.674 8.67-4.437 11.834L16 52l2.233-16.002C18.155 36 18.078 36 18 36 8.059 36 0 27.941 0 18S8.059 0 18 0s18 8.059 18 18zM18 29c6.075 0 11-4.925 11-11S24.075 7 18 7 7 11.925 7 18s4.925 11 11 11z" fill="#EF2D56"/></symbol><symbol id="finder" viewBox="0 0 14 15"><path d="M13.809 12.442l-2.735-2.734a.633.633 0 0 0-.465-.192h-.437a5.51 5.51 0 0 0 1.203-3.5c0-1.039-.255-1.987-.766-2.843a5.68 5.68 0 0 0-2.078-2.078A5.452 5.452 0 0 0 5.687.329c-1.039 0-1.996.255-2.87.766A5.748 5.748 0 0 0 .765 3.173 5.452 5.452 0 0 0 0 6.016c0 1.04.255 1.997.766 2.872a5.816 5.816 0 0 0 2.05 2.05c.875.51 1.832.766 2.872.766a5.51 5.51 0 0 0 3.5-1.203v.437c0 .183.063.338.19.465l2.735 2.734a.633.633 0 0 0 .465.192.633.633 0 0 0 .465-.192l.766-.765a.633.633 0 0 0 .191-.465.633.633 0 0 0-.191-.465zM5.688 9.516c-.639 0-1.231-.155-1.778-.464a3.467 3.467 0 0 1-1.258-1.258 3.545 3.545 0 0 1-.465-1.778c0-.638.155-1.22.465-1.75.31-.546.73-.975 1.258-1.285a3.545 3.545 0 0 1 1.777-.465c.639 0 1.222.155 1.75.465.547.31.976.739 1.286 1.285.31.53.464 1.112.464 1.75 0 .638-.154 1.23-.464 1.778-.31.528-.739.948-1.286 1.258a3.397 3.397 0 0 1-1.75.464z" fill="#fff"/></symbol><symbol id="login" viewBox="0 0 13 17"><path d="M6.5 8.314c1.89 0 3.422-1.861 3.422-4.157C9.922 1.861 9.42 0 6.5 0 3.58 0 3.077 1.861 3.077 4.157c0 2.296 1.533 4.157 3.423 4.157zM.036 14.661c-.001-.14-.002-.039 0 0zM12.964 14.77c.002-.038 0-.265 0 0z" fill="#0A3F5A"/><path d="M12.957 14.494c-.064-4-.586-5.14-4.583-5.86 0 0-.563.716-1.874.716-1.311 0-1.874-.717-1.874-.717-3.954.714-4.508 1.836-4.58 5.73-.007.319-.01.335-.01.298v.42S.988 17 6.5 17c5.512 0 6.464-1.918 6.464-1.918v-.311a2.559 2.559 0 0 1-.007-.277z" fill="#0A3F5A"/></symbol><symbol id="mail" viewBox="0 0 14 14"><path d="M13.727 4.973c-.657.52-2.079 1.558-4.211 3.09l-.274.218c-.437.328-.765.574-1.039.711-.437.274-.848.383-1.203.383-.383 0-.766-.11-1.203-.355-.274-.137-.602-.383-1.04-.711l-.273-.246C2.27 6.476.875 5.437.274 4.973a.234.234 0 0 0-.192 0A.15.15 0 0 0 0 5.109v5.579c0 .382.11.683.383.93.246.273.547.382.93.382h11.374c.356 0 .657-.11.93-.383.246-.246.383-.547.383-.93V5.11c0-.054-.055-.109-.11-.164-.054-.027-.109-.027-.163.028zM7 8.5c-.246 0-.547-.11-.875-.328-.219-.11-.492-.3-.848-.602l-.273-.191C2.762 5.739 1.23 4.617.438 3.989l-.192-.137C.082 3.742 0 3.55 0 3.332v-.52c0-.355.11-.656.383-.93.246-.245.547-.382.93-.382h11.374c.356 0 .657.137.93.383.246.273.383.574.383.93v.519c0 .219-.082.41-.246.52l-.137.109c-.793.629-2.324 1.777-4.62 3.418l-.274.191c-.383.301-.657.492-.848.602C7.52 8.39 7.219 8.5 7 8.5z" fill="#11A9B7"/></symbol><symbol id="phone" viewBox="0 0 17 16"><path d="M16.406.781c.188.031.313.125.438.25.093.157.156.313.156.469 0 2.625-.656 5.063-1.969 7.313C13.72 11 12 12.75 9.812 14.03 7.563 15.344 5.125 16 2.5 16c-.188 0-.344-.031-.469-.156a.499.499 0 0 1-.25-.438l-.75-3.25c-.062-.156-.031-.312.063-.5a.59.59 0 0 1 .375-.344l3.5-1.5c.125-.062.281-.062.468-.03.157.03.282.124.407.25l1.531 1.874a10.727 10.727 0 0 0 3.25-2.281 11.303 11.303 0 0 0 2.281-3.25l-1.875-1.563a.622.622 0 0 1-.25-.375c-.062-.156-.031-.312.031-.5l1.5-3.5a.727.727 0 0 1 .344-.343.891.891 0 0 1 .5-.063l3.25.75z" fill="#11A9B7"/></symbol><symbol id="zip" viewBox="0 0 16 16"><path d="M15.28 5.507h-2.115V3.46L9.475 0H.721v16h12.444v-2.371h2.114V5.507zm-1.334 6.788H4.613V6.841h9.333v5.454z" fill="#0A3F5A"/><path d="M8.58 10.387H6.91l1.656-2.07v-.443H6.224v.516h1.664l-1.71 2.07v.443H8.58v-.516zM9.63 7.874h-.59v3.03h.59v-3.03zM10.85 9.888h.716c.14 0 .268-.029.384-.085a.944.944 0 0 0 .299-.227 1.054 1.054 0 0 0 .26-.695.977.977 0 0 0-.072-.365 1.088 1.088 0 0 0-.2-.324 1 1 0 0 0-.306-.23.86.86 0 0 0-.386-.088H10.26v3.03h.589V9.887zm0-1.498h.657a.38.38 0 0 1 .281.128.505.505 0 0 1 .09.156c.022.061.034.13.034.207 0 .15-.036.27-.109.358a.337.337 0 0 1-.27.133h-.683V8.39z" fill="#0A3F5A"/></symbol></svg>