<svg width="20" height="21" fill="none" xmlns="http://www.w3.org/2000/svg"><path d="M13.764 10.125l5.664 5.664c.34.34.51.793.51 1.246 0 .51-.17.963-.51 1.303l-1.246 1.246c-.397.34-.85.51-1.303.51-.51 0-.906-.17-1.246-.51L9.969 13.92l-5.664 5.664c-.34.34-.793.51-1.246.51-.51 0-.963-.17-1.303-.51L.51 18.338c-.34-.34-.51-.793-.51-1.303 0-.453.17-.906.51-1.246l5.664-5.664L.51 4.461A1.666 1.666 0 0 1 0 3.215c0-.453.17-.906.51-1.303L1.756.666c.34-.34.793-.51 1.303-.51.453 0 .906.17 1.246.51L9.969 6.33 15.633.666c.34-.34.736-.51 1.246-.51.453 0 .906.17 1.303.51l1.246 1.246c.34.397.51.85.51 1.303 0 .51-.17.906-.51 1.246l-5.664 5.664z" fill="#fff"/></svg>