<svg xmlns="http://www.w3.org/2000/svg" width="706" height="154" viewBox="0 0 7060000 1539994" shape-rendering="geometricPrecision" text-rendering="geometricPrecision" image-rendering="optimizeQuality" fill-rule="evenodd" clip-rule="evenodd"><defs><style>.fil0{fill:#fff}</style></defs><g id="Слой_x0020_1"><g id="_2372050050960"><path class="fil0" d="M1438383 1220305c76654-242127 149658-402745 227528-635139 27992-80303 51107-125327 43807-171567-13381-74221-63271-94902-111945-31630-7299 12165-15815 21898-21897 32846-29197 48674-54756 99780-88831 159390-102201 176434-178855 408839-232394 487926-69354 109500-165484 88819-194681-21898-77870 57178-171567-3649-167918-103429 2433-88819 25559-201980 37725-293232 15815-111945 47445-396662 45011-549981-2433-19465-3649-32847-7299-47445-18248-52323-71787-58406-116799-26776-25559 17043-47457 54756-58406 103429-19476 70571-25559 147225-35291 223879-6083 51106-90036 507390-109512 543886-60827 124110-274985-83953-434374-131410C36673 710493-72827 801745 57366 879615c86386 53540 374753 278634 446540 355288 18260 18260 21910 19476 38941 35291 25547 25548 41374 48674 69354 73004 160607 147225 444119 216579 658265 105863 43807-23126 53539-32859 83965-64489 51094-52322 62043-98563 83952-164267zm2676854 282283h232406l96118-446540c127760-15815 131409 73004 150874 169123l51106 277417h236056l-57189-283500c-13382-69354-45024-125315-70571-153307-15815-15815-29209-23114-47457-37713 37725-23126 66921-32858 96130-51106 47445-27992 92469-66922 137492-146008 54745-96130 82737-243355 27981-351650-54756-111945-146008-133843-306627-133843-147224 0-293232-2433-440457 0l-35291 182516h125327l-195898 974611zm367465-629056l70571-341905c102201-3650 271335-29197 197114 194681-53539 159390-154535 149658-267685 147224zm1815392 629056h206846l73004-323646c88831-7311 96130 38929 115595 133843l37724 191020 214146-2421-29208-146020c-31630-137493-19465-163040-99780-249438l243343-354071-221434 2433c-54756 74221-104645 166701-153307 243355h-69354c-3650-64488 114378-523205 131409-650965h-341906l-32858 182516h124111c-19465 155740-195898 894308-198331 973394zm-3904564-300532h-192248l-25547 115595h-155741l201981-970973-371115 4866-42578 178866h135047l-206847 972178 593777-2433z"/><path class="fil0" d="M5097159 1520848c18248 7299 38941 12166 66922 15815 191031 19465 287149-51106 345555-127760 53539-69354 70571-121677 92480-205630 31630-114378 48662-245776-23126-344339-76653-104646-232393-137492-379630-76654-115583 48674-200764 147225-243343 281068-21909 69354-35291 149657-27992 226311 9744 109512 63272 191032 169134 231189zm64488-248221c-13381-47456-6082-99767 12166-169122 19464-74232 74220-198331 166701-166701 73004 21898 76653 237272 0 349205-58406 88831-148453 102213-178867-13382zm-2648873 187383c124111 149657 367465 47444 475749 9732l-35280-156957c-96130 32846-237271 104634-274984-41374 159390 13382 298099-37725 377185-175217 197115-345555-293232-469666-502512-192248-73004 96130-109512 198343-111945 332173 0-1216-10949 122894 71787 223891zm171568-337040c12165-80303 51094-171567 124098-186166 58418-12165 81532 30425 69355 80303-4867 21910-13382 43808-32847 63272-36508 35292-93697 45024-160606 42591zm913772-51107c31642 124111 211713 141142 233623 198331 41374 104646-150875 118028-261603 29197l-74221 156969c57189 73004 233611 92468 345556 69354 135059-27992 211713-137492 217795-271335 3650-60838-9732-92480-63271-141142-47445-41374-102201-53539-146008-82748-23115-15815-31630-19464-29197-48661 3649-53540 47445-51106 111933-48673l-13382 80303 150886-2433 98551-302965-184949 2433-9732 45012c-92469-6083-199547-8516-272552 48673 0 1217-142358 116811-103429 267685zm2165825 405178c19465 18248 48674 35291 92469 47457 48673 15815 105862 18248 160618 9732 35280-3650 60839-12165 83953-18248 29209-7311 53540-18260 82737-29209 12177-6082 25559-9732 38941-18248l-35292-155740c-66909 21898-306614 143575-281067-133843 15815-159401 64488-265252 242138-243354l-13382 76653 149658-2433 99768-302965h-182505l-13393 53528c-210497-21898-323658 37724-412477 156969-73004 96118-105862 233610-96118 373535 4866 70571 27980 138709 83952 186166z"/><path class="fil0" d="M3119933 1502588h203197l119244-571866 114378 2433 57189-177650h-131410l45012-225095h-181287l-66922 225095h-108295l-35291 175217h92480zM1068485 952619c38930-83953 66922-208063 76654-284717 9732-74220-12165-105850-90035-118027-21910-3650-43808-2433-63272 13382-29209 21909-25559 60838-37725 125326-19464 133843-60838 277430-3649 323658 62055 49890 97346-10949 118027-59622zm165485 77870c63272-104634 141142-287150 102201-347988-32847-48662-125327-74221-153319 3649-21898 60839-41363 155753-57178 208064-18259 57189-45023 133854-21909 172783 41374 71788 102213 7299 130205-36508zm2373877-380835h147236l105850-302976h-189803z"/></g></g></svg>