<svg width="166" height="72" fill="none" xmlns="http://www.w3.org/2000/svg"><path d="M96.147 25.95h-8.775L85.698 30h-4.482l8.424-18.9h4.32l8.451 18.9h-4.59l-1.674-4.05zm-1.377-3.321l-2.997-7.236-2.997 7.236h5.994zm20.893-2.484c1.098.378 1.953.972 2.565 1.782.63.792.945 1.719.945 2.781 0 1.152-.378 2.151-1.134 2.997-.756.846-1.782 1.494-3.078 1.944-1.278.45-2.682.675-4.212.675-1.296 0-2.592-.162-3.888-.486a14.244 14.244 0 0 1-3.645-1.485l1.35-3.132c.828.504 1.737.891 2.727 1.161 1.008.252 1.989.378 2.943.378 1.296 0 2.367-.234 3.213-.702.864-.468 1.296-1.125 1.296-1.971 0-.702-.297-1.233-.891-1.593-.576-.36-1.368-.54-2.376-.54h-4.617V18.66h4.293c.882 0 1.566-.18 2.052-.54.504-.36.756-.855.756-1.485 0-.738-.36-1.314-1.08-1.728-.702-.414-1.611-.621-2.727-.621-.828 0-1.683.117-2.565.351a9.758 9.758 0 0 0-2.511.999l-1.323-3.402c1.998-1.026 4.158-1.539 6.48-1.539 1.476 0 2.835.216 4.077.648 1.242.432 2.232 1.062 2.97 1.89.738.828 1.107 1.791 1.107 2.889 0 .9-.243 1.701-.729 2.403s-1.152 1.242-1.998 1.62zm24.199-9.045V30h-4.347V14.664h-8.532V30h-4.347V11.1h17.226zm4.685 0h4.347v12.312l9.018-12.312h4.104V30h-4.32V17.715L148.678 30h-4.131V11.1zM93.2 51v-7.084l-3.542 5.94h-1.452l-3.454-5.962V51H81.65V39.164h3.586l3.784 6.842 4.026-6.842h3.212L96.302 51H93.2zm10.987-12.012c1.834 0 3.242.44 4.224 1.32.983.865 1.474 2.178 1.474 3.938V51h-3.212v-1.474c-.645 1.1-1.848 1.65-3.608 1.65-.909 0-1.701-.154-2.376-.462-.66-.308-1.165-.733-1.517-1.276a3.321 3.321 0 0 1-.528-1.848c0-1.1.41-1.965 1.231-2.596.836-.63 2.12-.946 3.85-.946h2.728c0-.748-.227-1.32-.682-1.716-.454-.41-1.136-.616-2.046-.616-.63 0-1.254.103-1.87.308a4.784 4.784 0 0 0-1.54.792l-1.231-2.398c.645-.455 1.415-.807 2.309-1.056.91-.25 1.841-.374 2.794-.374zm-.264 9.878c.587 0 1.108-.132 1.562-.396.455-.279.778-.682.968-1.21v-1.21h-2.354c-1.408 0-2.112.462-2.112 1.386 0 .44.169.792.506 1.056.352.25.829.374 1.43.374zm15.918-9.878c1.1 0 2.097.257 2.992.77a5.343 5.343 0 0 1 2.134 2.134c.513.91.77 1.973.77 3.19 0 1.217-.257 2.288-.77 3.212a5.533 5.533 0 0 1-2.134 2.134c-.895.499-1.892.748-2.992.748-1.511 0-2.699-.477-3.564-1.43v5.522h-3.432V39.164h3.278v1.364c.85-1.027 2.09-1.54 3.718-1.54zm-.594 9.372c.88 0 1.598-.293 2.156-.88.572-.601.858-1.4.858-2.398 0-.997-.286-1.79-.858-2.376-.558-.601-1.276-.902-2.156-.902-.88 0-1.606.3-2.178.902-.558.587-.836 1.379-.836 2.376 0 .997.278 1.797.836 2.398.572.587 1.298.88 2.178.88zm14.109-1.848h-1.782V51h-3.432V39.164h3.432v4.598h1.848l3.212-4.598h3.652l-4.136 5.676 4.422 6.16h-4.048l-3.168-4.488zm20.042-1.386c0 .044-.022.352-.066.924h-8.954a2.793 2.793 0 0 0 1.144 1.738c.602.425 1.35.638 2.244.638.616 0 1.159-.088 1.628-.264a4.07 4.07 0 0 0 1.342-.88l1.826 1.98c-1.114 1.276-2.742 1.914-4.884 1.914-1.334 0-2.515-.257-3.542-.77-1.026-.528-1.818-1.254-2.376-2.178-.557-.924-.836-1.973-.836-3.146 0-1.159.272-2.2.814-3.124a5.782 5.782 0 0 1 2.266-2.178c.968-.528 2.046-.792 3.234-.792 1.159 0 2.208.25 3.146.748a5.367 5.367 0 0 1 2.2 2.156c.543.924.814 2.002.814 3.234zm-6.138-3.542c-.777 0-1.43.22-1.958.66-.528.44-.85 1.041-.968 1.804h5.83c-.117-.748-.44-1.342-.968-1.782-.528-.455-1.173-.682-1.936-.682zm18.305.396h-4.004V51h-3.41v-9.02h-4.004v-2.816h11.418v2.816z" fill="#fff"/><path fill-rule="evenodd" clip-rule="evenodd" d="M54.45 31.366H66.1v2.16H52.247l1.02-.995h-.012l1.195-1.165zM20.853 56.457c.042.333.145.579.381.824.446.416 1.025.533 1.586.269.41-.232.716-.588.754-1.063-.001-1.489 1.582-1.752 2.284-.927.505.596.329 1.46.091 2.129-.288.81-.787 1.38-1.477 1.886-1.786 1.12-4.22.913-5.487-.876-1.39.24-2.528.086-3.724-.727-1.35-1.058-2.014-2.616-1.613-4.364-1.15-1.03-1.676-2.212-1.367-3.79.288-1.185 1.042-2.047 2.135-2.585.823-.325 1.932-.55 2.684.064.949.777.527 2.403-1.069 2.19-.477-.029-.867.247-1.098.647-.196.431-.127.862.159 1.235.188.218.386.331.664.4 2.627.261 2.454-.116.74 1.873-.253.359-.367.69-.317 1.128.127.698.649 1.237 1.325 1.45.616.155 1.08-.048 1.54-.431 1.952-1.854 1.577-1.994 1.81.668zm6.005-13.993l8.997-8.81c1.103-1.079 2.724.59 1.612 1.68l-9.065 8.874c-1.318 1.291-2.938-.38-1.544-1.744zm13.545-17.608L50.73 14.745c1.266-1.239 3.127.676 1.85 1.927L42.175 26.857c-1.512 1.48-3.37-.436-1.772-2.001zm-2.624-1.764l-1.466 1.43c-.677.663-.696 1.74-.038 2.39l1.797 1.786-13.46 13.14-1.64 4.935-1.332 1.29a1.867 1.867 0 0 0-.747 1.493c0 1.04.861 1.888 1.917 1.888a1.9 1.9 0 0 0 1.443-.65l1.452-1.406 5.006-1.495 13.46-13.139 1.101 1.093c.656.652 1.75.642 2.428-.02l2.04-1.991-.016-.001 8.126-7.917 3.765-3.675c.68-.665.697-1.74.04-2.39l-3.22-3.157 6.582-6.425-2.605-2.622-6.581 6.424-3.173-3.154c-.656-.653-1.749-.644-2.428.019L37.779 23.092zm.11-2.246c-6.279-.417-11.87-2.849-16.853-6.672.494-.461.93-.923 1.421-1.385 4.86 3.704 10.344 5.865 16.47 6.118L38.92 6.13l2.125.007.013 11.616-3.17 3.093zm2.107-18.333A30.08 30.08 0 0 1 56.894 7.68l-1.462 1.48a28.01 28.01 0 0 0-15.436-4.61c-15.142 0-27.53 11.988-27.875 26.818h21.028l-2.212 2.16H12.156a26.862 26.862 0 0 0 2.636 10.194c-.705-.226-1.462-.246-2.21-.135a31.357 31.357 0 0 1-1.87-5.705 27.927 27.927 0 0 1-.128-11.45c2.658-13.594 14.85-23.918 29.412-23.918zM64.738 15.42c3.283 4.73 5.209 10.44 5.209 16.58 0 16.24-13.454 29.486-29.95 29.486-3.916 0-7.823-.828-11.36-2.235.167-.704.22-1.426.072-2.108 3.142 1.375 6.57 2.16 10.217 2.29l-.023-17.398.607-.593c.7-.07 1.013.044 1.52-.016v.007a23.63 23.63 0 0 1 4.502.621c5.237 1.287 9.664 4.275 13.041 8.43-.448.545-1.222.834-1.672 1.38-2.736-3.404-5.957-5.92-10.169-7.335a22.306 22.306 0 0 0-5.408-1.026l-.298-.015.025 15.942C55.922 58.88 67.879 46.772 67.879 32c0-5.6-1.718-10.817-4.662-15.168l1.52-1.412z" fill="#fff"/></svg>