<svg width="14" height="14" fill="none" xmlns="http://www.w3.org/2000/svg"><path d="M13.727 4.973c-.657.52-2.079 1.558-4.211 3.09l-.274.218c-.437.328-.765.574-1.039.711-.437.274-.848.383-1.203.383-.383 0-.766-.11-1.203-.355-.274-.137-.602-.383-1.04-.711l-.273-.246C2.27 6.476.875 5.437.274 4.973a.234.234 0 0 0-.192 0A.15.15 0 0 0 0 5.109v5.579c0 .382.11.683.383.93.246.273.547.382.93.382h11.374c.356 0 .657-.11.93-.383.246-.246.383-.547.383-.93V5.11c0-.054-.055-.109-.11-.164-.054-.027-.109-.027-.163.028zM7 8.5c-.246 0-.547-.11-.875-.328-.219-.11-.492-.3-.848-.602l-.273-.191C2.762 5.739 1.23 4.617.438 3.989l-.192-.137C.082 3.742 0 3.55 0 3.332v-.52c0-.355.11-.656.383-.93a1.26 1.26 0 0 1 .93-.382h11.374c.356 0 .657.137.93.383.246.273.383.574.383.93v.519c0 .219-.082.41-.246.52l-.137.109c-.793.629-2.324 1.777-4.62 3.418l-.274.191a7.792 7.792 0 0 1-.848.602C7.52 8.39 7.219 8.5 7 8.5z" fill="#11A9B7"/></svg>