<svg width="17" height="16" fill="none" xmlns="http://www.w3.org/2000/svg"><path d="M16.406.781c.188.031.313.125.438.25.093.157.156.313.156.469 0 2.625-.656 5.063-1.969 7.313C13.72 11 12 12.75 9.812 14.03 7.563 15.344 5.125 16 2.5 16c-.188 0-.344-.031-.469-.156a.499.499 0 0 1-.25-.438l-.75-3.25c-.062-.156-.031-.312.063-.5a.59.59 0 0 1 .375-.344l3.5-1.5c.125-.062.281-.062.468-.03.157.03.282.124.407.25l1.531 1.874a10.727 10.727 0 0 0 3.25-2.281 11.303 11.303 0 0 0 2.281-3.25l-1.875-1.563a.622.622 0 0 1-.25-.375c-.062-.156-.031-.312.031-.5l1.5-3.5a.727.727 0 0 1 .344-.343.891.891 0 0 1 .5-.063l3.25.75z" fill="#11A9B7"/></svg>