<svg width="16" height="16" fill="none" xmlns="http://www.w3.org/2000/svg"><path d="M8 .25a7.6 7.6 0 0 1 2.906.563 7.6 7.6 0 0 1 2.438 1.593l1.125-1.125A.723.723 0 0 1 15 1.063c.208 0 .385.072.531.218a.723.723 0 0 1 .219.532V6a.723.723 0 0 1-.219.531.723.723 0 0 1-.531.219h-4.188a.724.724 0 0 1-.53-.219.723.723 0 0 1-.22-.531.72.72 0 0 1 .22-.531l1.312-1.313a5.415 5.415 0 0 0-1.656-1.031A4.937 4.937 0 0 0 8.03 2.75a5.08 5.08 0 0 0-2.625.719A5.156 5.156 0 0 0 3.47 5.375a5.136 5.136 0 0 0-.719 2.656c0 .938.23 1.813.688 2.625a5.565 5.565 0 0 0 1.906 1.906A5.315 5.315 0 0 0 8 13.25c.646 0 1.26-.104 1.844-.313a5.042 5.042 0 0 0 1.625-1c.062-.062.146-.083.25-.062.104 0 .187.031.25.094l1.25 1.25c.062.062.094.156.094.281a.297.297 0 0 1-.126.25 7.711 7.711 0 0 1-2.374 1.469A7.582 7.582 0 0 1 8 15.75a7.429 7.429 0 0 1-3.875-1.063 7.83 7.83 0 0 1-2.844-2.812A7.6 7.6 0 0 1 .25 8a7.6 7.6 0 0 1 1.031-3.875 7.83 7.83 0 0 1 2.844-2.813A7.428 7.428 0 0 1 8 .25z" fill="#fff"/></svg>