<svg width="14" height="14" fill="none" xmlns="http://www.w3.org/2000/svg"><path d="M8.063 12.906c.124-.125.187-.312.187-.531 0-.188-.094-.375-.219-.531L4.281 8.25h8.969a.732.732 0 0 0 .531-.219A.754.754 0 0 0 14 7.5v-1c0-.188-.094-.375-.219-.531-.156-.125-.344-.219-.531-.219H4.281l3.75-3.594a.754.754 0 0 0 .219-.531.849.849 0 0 0-.188-.531L7.345.406C7.187.281 7 .187 6.812.187a.754.754 0 0 0-.53.22L.218 6.468A.732.732 0 0 0 0 7c0 .219.063.406.219.531l6.062 6.063c.125.156.313.219.532.219a.732.732 0 0 0 .53-.22l.72-.687z" fill="#11A9B7"/></svg>