<svg width="16" height="17" fill="none" xmlns="http://www.w3.org/2000/svg"><path d="M14.063 16.125c.457 0 .843-.14 1.195-.492.316-.317.492-.703.492-1.195V2.062c0-.457-.176-.843-.492-1.195-.352-.316-.738-.492-1.195-.492H1.687C1.196.375.81.551.492.867A1.593 1.593 0 0 0 0 2.063v12.374c0 .493.14.88.492 1.196.317.351.703.492 1.196.492h12.374zM6.854 12.68c-.105.14-.246.175-.386.175-.176 0-.317-.035-.387-.175L2.426 9.023c-.14-.105-.176-.246-.176-.386s.035-.282.176-.422l.773-.774a.565.565 0 0 1 .387-.175c.14 0 .281.07.422.175l2.46 2.461 5.274-5.273a.565.565 0 0 1 .387-.176c.14 0 .281.07.422.176l.773.773c.106.141.176.282.176.422s-.07.281-.176.387L6.855 12.68z" fill="#11A9B7"/></svg>