<svg width="16" height="16" fill="none" xmlns="http://www.w3.org/2000/svg"><path d="M15.28 5.507h-2.115V3.46L9.475 0H.721v16h12.444v-2.371h2.114V5.507zm-1.334 6.788H4.613V6.841h9.333v5.454z" fill="#0A3F5A"/><path d="M8.58 10.387H6.91l1.656-2.07v-.443H6.224v.516h1.664l-1.71 2.07v.443H8.58v-.516zm1.05-2.513h-.59v3.03h.59v-3.03zm1.22 2.014h.716c.14 0 .268-.029.384-.085a.944.944 0 0 0 .299-.227 1.054 1.054 0 0 0 .26-.695.977.977 0 0 0-.072-.365 1.088 1.088 0 0 0-.2-.324 1 1 0 0 0-.306-.23.86.86 0 0 0-.386-.088H10.26v3.03h.589V9.887zm0-1.498h.657a.38.38 0 0 1 .281.128.505.505 0 0 1 .09.156c.022.061.034.13.034.207 0 .15-.036.27-.109.358a.337.337 0 0 1-.27.133h-.683V8.39z" fill="#0A3F5A"/></svg>